<?xml version="1.0" encoding="UTF-8" standalone="no"?>
<!DOCTYPE svg PUBLIC "-//W3C//DTD SVG 1.1//EN" "http://www.w3.org/Graphics/SVG/1.1/DTD/svg11.dtd">
<!-- derived from http://openclipart.org/detail/3330/key-by-barretr-->
<svg version="1.1" xmlns="http://www.w3.org/2000/svg" xmlns:xlink="http://www.w3.org/1999/xlink" preserveAspectRatio="xMidYMid meet" viewBox="0 0 256 256" width="256" height="256">
	<defs>
		<linearGradient id="gradienteuYOSlOB" gradientUnits="userSpaceOnUse" x1="0.01" y1="0.9" x2="256.01" y2="256">
			<stop style="stop-color: #ffe800;stop-opacity: 1" offset="0%"></stop>
			<stop style="stop-color: #dfb300;stop-opacity: 1" offset="100%"></stop>
		</linearGradient>
		<linearGradient id="gradiente6rDG2vWr" gradientUnits="userSpaceOnUse" x1="142.22" y1="145.07" x2="13.7" y2="13.3">
			<stop style="stop-color: #dfb300;stop-opacity: 1" offset="0%"></stop>
			<stop style="stop-color: #dfb300;stop-opacity: 1" offset="50%"></stop>
			<stop style="stop-color: #dfb300;stop-opacity: 1" offset="100%"></stop>
		</linearGradient>
		<linearGradient id="gradientbDr1a22rB" gradientUnits="userSpaceOnUse" x1="185.98" y1="169.04" x2="176.39" y2="178.54">
			<stop style="stop-color: #ffe800;stop-opacity: 0.39216" offset="0%"></stop>
			<stop style="stop-color: #dfb300;stop-opacity: 0.39216" offset="100%"></stop>
		</linearGradient>
		<linearGradient id="gradienta3JPV4yuMt" gradientUnits="userSpaceOnUse" x1="30.7" y1="37.08" x2="93.79" y2="101.75">
			<stop style="stop-color: #ffffff;stop-opacity: 1" offset="0%"></stop>
			<stop style="stop-color: #ffffff;stop-opacity: 0" offset="100%"></stop>
		</linearGradient>
	</defs>
	<g>
		<path d="M23.08 133.46C43.48 153.69 72.3 160.5 98.37 153.92C99.35 154.89 104.26 159.75 113.09 168.5L139.26 171.68L142.5 197.67L168.68 200.85L171.91 226.82L198.11 230.04L201.32 256L247.86 252.13L251.59 251.83L252.3 243.84L256 202.12L241.44 187.68L226.91 173.27L212.36 158.84L197.82 144.44L183.27 130.01L168.73 115.58C160 106.93 155.15 102.12 154.18 101.16C162.46 74.37 155.93 44.08 134.58 22.9C103.8 -7.62 53.87 -7.65 23.1 22.87C-7.68 53.39 -7.7 102.94 23.08 133.46ZM84.23 32.78C95.03 43.49 92.32 63.56 78.2 77.57C64.07 91.57 43.84 94.24 33.04 83.53C22.24 72.82 24.94 52.78 39.07 38.78C53.2 24.77 73.43 22.07 84.23 32.78Z" fill="url(#gradienteuYOSlOB)"></path>
		<path d="M26.83 39.12C28.47 36.96 30.27 34.89 32.21 32.9C31.82 33.3 31.42 33.69 31.04 34.1C29.54 35.72 28.14 37.4 26.83 39.12ZM42.31 24.44C39.2 26.55 36.21 28.98 33.41 31.7C36.22 28.97 39.19 26.56 42.31 24.44ZM24.06 43.1C24.62 42.23 25.2 41.38 25.81 40.53C25.2 41.38 24.62 42.23 24.06 43.1ZM22.28 46.02C22.82 45.08 23.38 44.16 23.97 43.25C23.39 44.15 22.82 45.09 22.28 46.02ZM19.33 51.77C20.21 49.82 21.2 47.89 22.28 46.02C21.19 47.9 20.21 49.81 19.33 51.77ZM16.97 57.74C17.66 55.72 18.45 53.72 19.33 51.77C18.45 53.73 17.66 55.72 16.97 57.74ZM15.19 63.86C15.68 61.79 16.29 59.75 16.97 57.74C16.29 59.75 15.68 61.8 15.19 63.86ZM14.64 66.41C14.81 65.56 14.99 64.71 15.19 63.86C14.99 64.71 14.81 65.56 14.64 66.41ZM46.42 21.89C45.5 22.42 44.58 22.97 43.67 23.55C44.58 22.97 45.5 22.42 46.42 21.89ZM52.07 19.03C51.12 19.45 50.16 19.9 49.23 20.38C50.17 19.9 51.11 19.46 52.07 19.03ZM63.94 15.1C62.94 15.33 61.93 15.57 60.93 15.85C61.93 15.57 62.94 15.33 63.94 15.1ZM66.99 14.5C65.98 14.67 64.96 14.86 63.96 15.09C64.96 14.86 65.98 14.67 66.99 14.5ZM14.27 68.54C14.36 68.02 14.45 67.48 14.55 66.96C14.44 67.49 14.36 68.02 14.27 68.54ZM14.02 70.1C14.1 69.57 14.18 69.06 14.27 68.54C14.19 69.06 14.1 69.58 14.02 70.1ZM13.66 73.26C13.71 72.73 13.76 72.2 13.82 71.67C13.76 72.2 13.71 72.73 13.66 73.26ZM13.45 76.41C13.47 75.88 13.49 75.37 13.53 74.85C13.49 75.37 13.47 75.89 13.45 76.41ZM77.01 13.56C76.23 13.57 75.46 13.6 74.69 13.64C75.46 13.6 76.24 13.57 77.01 13.56ZM79.31 13.58C78.79 13.56 78.28 13.56 77.77 13.56C78.28 13.56 78.79 13.56 79.31 13.58ZM13.82 87.5C13.7 86.45 13.6 85.38 13.53 84.33C13.6 85.39 13.7 86.45 13.82 87.5ZM88.55 14.48C87.53 14.3 86.51 14.16 85.49 14.03C86.51 14.16 87.53 14.3 88.55 14.48ZM14.55 92.21C14.45 91.69 14.36 91.15 14.27 90.63C14.36 91.15 14.44 91.69 14.55 92.21ZM14.86 93.75C14.75 93.24 14.64 92.73 14.55 92.21C14.64 92.73 14.75 93.24 14.86 93.75ZM16.02 98.41C15.87 97.9 15.73 97.37 15.6 96.85C15.74 97.37 15.87 97.89 16.02 98.41ZM16.97 101.43C16.8 100.93 16.64 100.43 16.48 99.92C16.64 100.43 16.8 100.93 16.97 101.43ZM17.48 102.87C17.31 102.4 17.14 101.91 16.97 101.43C17.14 101.91 17.3 102.39 17.48 102.87ZM18.69 105.92C18.49 105.43 18.28 104.93 18.09 104.44C18.28 104.94 18.49 105.43 18.69 105.92ZM19.33 107.4C19.11 106.92 18.9 106.41 18.69 105.92C18.9 106.41 19.11 106.91 19.33 107.4ZM20.02 108.86C19.79 108.37 19.55 107.89 19.33 107.4C19.55 107.89 19.79 108.37 20.02 108.86ZM21.49 111.73C21.24 111.26 20.98 110.77 20.73 110.29C20.98 110.77 21.24 111.25 21.49 111.73ZM111.61 23.39C110.89 22.93 110.16 22.49 109.43 22.07C110.16 22.49 110.89 22.93 111.61 23.39ZM23.88 115.78C23.62 115.37 23.37 114.96 23.12 114.54C23.37 114.95 23.62 115.37 23.88 115.78ZM24.98 117.43C24.7 117.02 24.42 116.61 24.14 116.19C24.42 116.61 24.7 117.02 24.98 117.43ZM27.87 121.35C27.21 120.51 26.55 119.65 25.92 118.78C26.55 119.65 27.2 120.51 27.87 121.35ZM119.69 29.42C118.86 28.69 118.02 28.01 117.16 27.33C118.01 28 118.87 28.7 119.69 29.42ZM123.34 126.29C147.69 101.31 148.45 61.26 125.62 35.35C146.17 59.04 112.21 65.04 87.88 89.98C63.56 114.91 57.73 149.69 34.63 128.63C59.91 152.03 98.97 151.26 123.34 126.29Z" fill="url(#gradiente6rDG2vWr)"></path>
		<path d="M126.1 130.65C125.62 131.83 125.27 133.2 125.27 134.75C125.27 136.3 125.61 137.68 126.09 138.86C126.59 140.1 127.41 141.4 128.5 142.49C135.62 149.54 171.19 184.79 235.23 248.24L237.37 250.36L240.39 250.12L244.1 249.82L249.59 249.36L250.08 243.91L250.78 236.01L251.04 233L248.89 230.86C186.02 168.56 151.09 133.95 144.1 127.03C143 125.94 141.69 125.14 140.44 124.63C139.26 124.16 137.88 123.8 136.31 123.8C134.74 123.8 133.36 124.16 132.18 124.63C130.93 125.14 129.62 125.94 128.52 127.03C127.42 128.11 126.63 129.35 126.1 130.65Z" fill="url(#gradientbDr1a22rB)"></path>
		<path d="M32.22 126.28C57.37 152.05 62.75 115.76 87.9 89.98C113.04 64.2 148.47 58.66 123.32 32.89C98.18 7.11 57.37 7.13 32.22 32.91C31.83 33.31 31.42 33.71 31.04 34.11C7.06 59.98 7.47 100.9 32.22 126.28ZM83.65 34.13C94.36 45.11 91.68 65.67 77.67 80.03C63.67 94.38 43.62 97.13 32.9 86.15C22.19 75.17 24.88 54.62 38.88 40.26C52.89 25.91 72.94 23.16 83.65 34.13Z" fill="url(#gradienta3JPV4yuMt)"></path>
	</g>
</svg>